<svg width="232" height="232" viewBox="0 0 232 232" fill="none" xmlns="http://www.w3.org/2000/svg">
<path d="M121.721 0C124.764 0.100872 127.796 0.369381 130.811 0.804099C138.427 31.0473 156.181 51.9985 184.712 64.5913V173.49C193.975 162.337 200.46 149.142 203.626 134.993C208.808 111.568 204.376 87.0437 191.323 66.9175C202.556 70.6156 211.18 71.2524 222.801 71.1325C224.865 76.883 226.903 82.2277 228.303 88.1993C239.679 136.723 221.057 182.332 181.368 211.104C174.254 216.137 166.793 219.77 158.829 223.202L158.84 80.4494C155.029 78.1516 151.045 75.339 147.485 72.6733C148.106 123.976 147.036 175.673 147.657 226.992C139.245 229.512 130.402 230.765 121.652 231.3V76.142L121.721 0Z" fill="url(#paint0_linear_14_4)"/>
<path d="M105.988 0.224332L109.802 0.0107422C110.305 48.2634 109.824 97.5136 109.827 145.841L30.9371 145.851C41.9147 172.826 57.19 188.442 83.9798 199.84C84.1349 188.963 83.9651 177.887 84.0462 166.971L109.82 166.99L109.842 231.275C84.2264 230.629 57.157 218.826 38.2645 201.695L38.0761 201.534C20.8355 186.59 7.55492 163.284 2.75732 141.098C1.09532 133.411 0.533306 127.786 0 119.975L83.9949 119.96L84.048 72.646C59.4338 91.2574 32.3974 99.0593 1.61389 96.5932C2.41888 88.6397 5.97402 78.5321 8.81568 71.1297C54.5752 71.7629 89.141 44.9737 100.773 0.825972C102.349 0.535202 104.355 0.388025 105.988 0.224332Z" fill="url(#paint1_linear_14_4)"/>
<defs>
<linearGradient id="paint0_linear_14_4" x1="176.627" y1="0" x2="176.627" y2="231.3" gradientUnits="userSpaceOnUse">
<stop stop-color="#883B04"/>
<stop offset="1" stop-color="#FE7615"/>
</linearGradient>
<linearGradient id="paint1_linear_14_4" x1="55.0156" y1="0.0107422" x2="55.0156" y2="231.275" gradientUnits="userSpaceOnUse">
<stop offset="0.206731" stop-color="#54015D"/>
<stop offset="1" stop-color="#B002C3"/>
</linearGradient>
</defs>
</svg>
